HIERARCHY
ROOT Hips
{
	OFFSET -0.001795 -0.223333 0.028219
	CHANNELS 6 Xposition Yposition Zposition Zrotation Yrotation Xrotation 
	JOINT LeftUpLeg
	{
		OFFSET 0.069520 -0.091406 -0.006815
		CHANNELS 3 Zrotation Yrotation Xrotation
		JOINT LeftLeg
		{
			OFFSET 0.034277 -0.375199 -0.004496
			CHANNELS 3 Zrotation Yrotation Xrotation
			JOINT LeftFoot
			{
				OFFSET -0.013596 -0.397961 -0.043693
				CHANNELS 3 Zrotation Yrotation Xrotation
				JOINT LeftToe
				{
					OFFSET 0.026358 -0.055791 0.119288
					CHANNELS 3 Zrotation Yrotation Xrotation
					End Site
					{
						OFFSET 0.000000 0.000000 0.000000
					}
				}
			}
		}
	}
	JOINT RightUpLeg
	{
		OFFSET -0.067670 -0.090522 -0.004320
		CHANNELS 3 Zrotation Yrotation Xrotation
		JOINT RightLeg
		{
			OFFSET -0.038290 -0.382569 -0.008850
			CHANNELS 3 Zrotation Yrotation Xrotation
			JOINT RightFoot
			{
				OFFSET 0.015774 -0.398415 -0.042312
				CHANNELS 3 Zrotation Yrotation Xrotation
				JOINT RightToe
				{
					OFFSET -0.025372 -0.048144 0.123348
					CHANNELS 3 Zrotation Yrotation Xrotation
					End Site
					{
						OFFSET 0.000000 0.000000 0.000000
					}
				}
			}
		}
	}
	JOINT Spine
	{
		OFFSET -0.002533 0.108963 -0.026696
		CHANNELS 3 Zrotation Yrotation Xrotation
		JOINT Spine1
		{
			OFFSET 0.005487 0.135180 0.001092
			CHANNELS 3 Zrotation Yrotation Xrotation
			JOINT Spine2
			{
				OFFSET 0.001457 0.052922 0.025425
				CHANNELS 3 Zrotation Yrotation Xrotation
				JOINT Neck
				{
					OFFSET -0.002778 0.213870 -0.042857
					CHANNELS 3 Zrotation Yrotation Xrotation
					JOINT Head
					{
						OFFSET 0.005152 0.064970 0.051349
						CHANNELS 3 Zrotation Yrotation Xrotation
						End Site
						{
							OFFSET 0.000000 0.000000 0.000000
						}
					}
				}
				JOINT LeftShoulder
				{
					OFFSET 0.078845 0.121749 -0.034090
					CHANNELS 3 Zrotation Yrotation Xrotation
					JOINT LeftArm
					{
						OFFSET 0.090977 0.030469 -0.008868
						CHANNELS 3 Zrotation Yrotation Xrotation
						JOINT LeftForeArm
						{
							OFFSET 0.259612 -0.012772 -0.027456
							CHANNELS 3 Zrotation Yrotation Xrotation
							JOINT LeftHand
							{
								OFFSET 0.249234 0.008986 -0.001171
								CHANNELS 3 Zrotation Yrotation Xrotation
								End Site
								{
									OFFSET 0.000000 0.000000 0.000000
								}
							}
						}
					}
				}
				JOINT RightShoulder
				{
					OFFSET -0.081759 0.118833 -0.038615
					CHANNELS 3 Zrotation Yrotation Xrotation
					JOINT RightArm
					{
						OFFSET -0.096012 0.032551 -0.009143
						CHANNELS 3 Zrotation Yrotation Xrotation
						JOINT RightForeArm
						{
							OFFSET -0.253742 -0.013329 -0.021401
							CHANNELS 3 Zrotation Yrotation Xrotation
							JOINT RightHand
							{
								OFFSET -0.255298 0.007772 -0.005559
								CHANNELS 3 Zrotation Yrotation Xrotation
								End Site
								{
									OFFSET 0.000000 0.000000 0.000000
								}
							}
						}
					}
				}
			}
		}
	}
}
MOTION
Frames: 7
Frame Time: 0.050000
-0.819153 0.558660 1.772476 -176.235626 22.288652 -176.332236 134.758885 -18.803189 -90.207822 -17.912780 -45.070643 -109.948586 143.542087 -1.366109 147.055494 0.000000 0.000000 0.000000 113.812559 -2.378121 -95.439296 6.824277 -62.506300 -142.365330 -45.170908 -10.139655 171.252585 0.000000 0.000000 0.000000 -98.234205 -23.190513 87.061700 -24.298576 -1.830345 -27.269260 120.545221 64.744055 101.623352 15.595039 -4.583811 -23.085621 0.000000 0.000000 0.000000 14.531461 -28.961147 -9.311416 -44.369757 -24.651598 -7.612585 23.283897 -63.361181 -44.891406 0.000000 0.000000 0.000000 -3.096312 10.120181 28.985126 37.343459 54.637622 25.504928 -102.539658 25.854038 -8.610387 0.000000 0.000000 0.000000 
-0.815693 0.571919 1.756166 -176.128457 21.751229 -176.003296 129.849554 -19.657798 -90.342855 -16.203670 -48.955495 -108.280406 142.638483 -2.183042 148.594128 0.000000 0.000000 0.000000 111.557995 -3.667424 -95.624410 5.581678 -66.754323 -139.277479 -33.726609 -13.306225 171.719185 0.000000 0.000000 0.000000 -94.562019 -24.462424 85.897403 -24.958622 -2.506978 -25.780581 116.211224 65.248009 97.304868 16.037992 -2.733822 -25.554169 0.000000 0.000000 0.000000 15.205321 -29.395894 -9.984909 -45.311030 -24.431119 -8.851012 18.800583 -64.071957 -42.188170 0.000000 0.000000 0.000000 -3.887320 9.365357 29.786870 37.540133 57.013013 28.030256 -99.419209 26.073794 -8.567260 0.000000 0.000000 0.000000 
-0.811594 0.583540 1.739973 -176.056574 21.308578 -175.553603 126.076313 -20.210504 -90.511551 -15.742417 -52.426296 -106.678953 142.359613 -1.605048 149.000747 0.000000 0.000000 0.000000 109.396633 -5.035516 -95.421321 7.890088 -69.479657 -140.829159 -27.987022 -14.516022 170.368595 0.000000 0.000000 0.000000 -88.624756 -26.276676 83.410943 -25.752022 -3.595834 -23.486035 107.903277 66.150248 89.662611 15.506990 -0.761429 -28.078619 0.000000 0.000000 0.000000 15.148241 -30.885462 -11.847402 -45.178093 -21.990542 -8.832271 15.797761 -66.773830 -41.859319 0.000000 0.000000 0.000000 -3.254991 9.158687 32.772544 33.497385 59.948201 27.021143 -96.225499 25.049212 -8.432710 0.000000 0.000000 0.000000 
-0.807292 0.594670 1.724524 -175.969860 20.478862 -175.248109 120.370025 -20.785531 -91.080176 -15.250158 -57.590742 -103.672431 145.678181 -2.702459 148.130833 0.000000 0.000000 0.000000 106.117856 -6.983232 -95.246923 13.436529 -72.106492 -145.036411 -35.561047 -11.229807 169.834500 0.000000 0.000000 0.000000 -84.950855 -27.446179 81.777201 -26.078130 -3.976646 -21.247271 101.746964 66.466724 83.639651 15.121053 0.627430 -30.209236 0.000000 0.000000 0.000000 15.799356 -31.836396 -12.556804 -44.597177 -20.671963 -9.037051 13.620557 -68.224404 -41.840778 0.000000 0.000000 0.000000 -4.337625 10.096368 35.436876 30.520813 62.890014 27.335731 -92.504295 22.057321 -6.596573 0.000000 0.000000 0.000000 
-0.802641 0.607509 1.709876 -176.015455 20.265985 -174.529394 115.255099 -21.882074 -90.815130 -16.215112 -62.397814 -100.153541 144.636354 -1.787969 148.871839 0.000000 0.000000 0.000000 102.148551 -9.362180 -94.049061 22.143515 -74.927326 -152.672471 -33.072767 -10.925290 169.078073 0.000000 0.000000 0.000000 -78.563079 -28.806575 78.725195 -26.109001 -4.781498 -18.956238 90.833762 66.324277 73.902518 13.716023 2.708902 -32.784920 0.000000 0.000000 0.000000 16.365195 -32.436268 -13.263853 -43.972639 -20.178234 -9.146027 13.159784 -71.107649 -43.902678 0.000000 0.000000 0.000000 -5.404902 10.598431 37.856234 27.690105 65.414979 27.635076 -88.499198 18.453413 -4.049639 0.000000 0.000000 0.000000 
-0.797967 0.626715 1.695650 -175.983258 20.536835 -173.864889 108.705759 -23.620259 -89.509339 -22.325614 -68.574370 -89.975512 142.364813 0.294824 149.549088 0.000000 0.000000 0.000000 96.313101 -12.483684 -91.670725 36.170889 -81.398884 -163.920826 -18.138835 -14.787170 171.090923 0.000000 0.000000 0.000000 -74.467507 -29.512508 76.067637 -26.022194 -4.978465 -17.068583 82.712494 65.680114 66.644370 12.886564 4.688534 -35.480538 0.000000 0.000000 0.000000 16.964456 -32.084556 -12.708316 -43.103173 -20.351270 -8.985723 14.057970 -73.385168 -46.949996 0.000000 0.000000 0.000000 -6.497557 12.102213 39.465165 25.916909 67.735268 28.232703 -85.807525 16.651832 -3.910052 0.000000 0.000000 0.000000 
-0.793252 0.652100 1.681501 -175.635439 20.387683 -172.955046 100.444453 -25.386106 -88.199845 -38.578907 -74.652372 -68.717280 140.903575 2.418433 149.420455 0.000000 0.000000 0.000000 90.156079 -15.336957 -89.168714 145.096211 -86.802326 90.986017 28.904549 -27.562794 162.323291 0.000000 0.000000 0.000000 -71.309798 -30.005915 73.805168 -25.939442 -5.318777 -15.593206 78.631320 64.876910 63.003866 12.595706 5.701893 -37.567328 0.000000 0.000000 0.000000 17.052820 -31.934267 -13.993129 -43.350948 -19.466810 -9.699974 8.926550 -75.909652 -44.210300 0.000000 0.000000 0.000000 -6.650637 12.361524 43.036190 20.078163 69.999915 25.327991 -83.848405 12.767931 -1.736338 0.000000 0.000000 0.000000 
